<svg width="1440" height="1094" viewBox="0 0 1440 1094" fill="none" xmlns="http://www.w3.org/2000/svg">
<path d="M151.5 671.5C142 524 -118 414.5 -154 390L-120.5 1202.5H408.5C418.167 1187.83 438.4 1155.6 442 1144C446.5 1129.5 423 1117.5 408.5 1103C394 1088.5 369.5 1069 260.5 921C151.5 773 161 819 151.5 671.5Z" fill="#F3BBAC"/>
<path d="M72.5 915.724C24.5 867.324 -5.83333 895.557 -15 915.724V1112.72H491C479.167 1077.22 423.2 1000.22 294 976.225C165.5 962.725 132.5 976.224 72.5 915.724Z" fill="#2C2D76"/>
<path d="M169.566 930.151L10.9733 802.587C9.96658 801.777 8.46771 802.12 7.9133 803.287L-172 1182H648C629.449 1126.43 490.036 982.317 480.964 972.977C480.653 972.656 480.26 972.467 479.817 972.408L170.552 930.575C170.191 930.526 169.85 930.379 169.566 930.151Z" stroke="#2C2D76"/>
</svg>
