<svg width="1440" height="1094" viewBox="0 0 1440 1094" fill="none" xmlns="http://www.w3.org/2000/svg">
<path d="M881.556 225C824.056 149 881.556 54 881.556 18V-2H1622.56V1128H1531.56L1293.06 1022.5C1213.72 942.333 1055.06 770.4 1055.06 724C1055.06 666 1046.06 612.5 1055.06 448C1064.06 283.5 939.056 301 881.556 225Z" stroke="#2C2D76"/>
<path d="M408.997 158.834C586.997 136.834 430.497 133.334 428.497 0.834021L428.497 -9.16601L428.497 -78.166L-2.00247 -68.166C5.33088 -56.3326 22.3975 -31.466 31.9975 -26.666C43.9975 -20.666 78.9975 0.834051 138.498 16.834C186.098 29.634 171.331 48.5007 157.998 56.334C168.498 85.334 193.898 153.934 211.498 196.334C233.498 249.334 230.997 180.834 408.997 158.834Z" stroke="white"/>
<path d="M919.668 4.5C896.468 -40.3 901.002 -69.1667 906.168 -78H1474.17V652.5C1463 634.667 1433.47 577.2 1404.67 490C1368.67 381 1378.17 343 1327.17 216C1276.17 89 1137.67 162.5 1044.17 111.5C950.668 60.5 948.668 60.5 919.668 4.5Z" fill="#E5596D"/>
</svg>
